<svg xmlns="http://www.w3.org/2000/svg" xmlns:xlink="http://www.w3.org/1999/xlink" width="18" height="18" viewBox="0 0 18 18">
  <defs>
    <clipPath id="clip-path">
      <path id="Clip_2" data-name="Clip 2" d="M0,0H18V18H0Z" fill="none"/>
    </clipPath>
  </defs>
  <g id="icon_customers" data-name="icon customers" clip-path="url(#clip-path)">
    <path id="Fill_1" data-name="Fill 1" d="M9,18c-1.41,0-6.2-.087-8.7-1.21L0,16.655v-.33c0-1.78.985-4.261,2.4-4.975.463-.235,1.029-.472,1.577-.7.693-.29,1.479-.619,2.207-1A4.328,4.328,0,0,1,5.6,8.392,3.76,3.76,0,0,1,4.526,5.961a1.5,1.5,0,0,1,.3-1.118.789.789,0,0,1,.069-.06l.016-1.264a3.668,3.668,0,0,1,.994-2.407A4.152,4.152,0,0,1,9,0a4.152,4.152,0,0,1,3.092,1.112,3.676,3.676,0,0,1,.994,2.42L13.1,4.783a.755.755,0,0,1,.068.059,1.542,1.542,0,0,1,.3,1.119A3.756,3.756,0,0,1,12.4,8.392a4.352,4.352,0,0,1-.583,1.256c.733.383,1.516.711,2.207,1l.018.008c.569.239,1.107.465,1.559.693,1.412.714,2.4,3.195,2.4,4.975v.33l-.3.135C15.2,17.913,10.41,18,9,18ZM6.943,10.4a26.366,26.366,0,0,1-2.578,1.194c-.558.234-1.085.454-1.511.67-.862.436-1.716,2.177-1.827,3.726A26.713,26.713,0,0,0,9,16.979a26.707,26.707,0,0,0,7.971-.992c-.112-1.55-.965-3.291-1.826-3.725-.422-.214-.945-.434-1.5-.666l-.012,0a26.049,26.049,0,0,1-2.614-1.215,4.057,4.057,0,0,1-2.071.594A3.846,3.846,0,0,1,6.943,10.4ZM5.555,5.641a3.088,3.088,0,0,0-.014.319A2.743,2.743,0,0,0,6.4,7.749l.111.1L6.547,8a3.258,3.258,0,0,0,.7,1.366,2.894,2.894,0,0,0,1.707.583A3.2,3.2,0,0,0,10.809,9.3,3.315,3.315,0,0,0,11.456,8l.036-.147.111-.1a2.74,2.74,0,0,0,.857-1.788,3.088,3.088,0,0,0-.014-.319l-.345,0L12.07,3.533a2.636,2.636,0,0,0-.71-1.712A3.193,3.193,0,0,0,9,1.021a3.187,3.187,0,0,0-2.368.808,2.666,2.666,0,0,0-.7,1.689L5.9,5.646Z" fill="#333"/>
  </g>
</svg>
