<svg xmlns="http://www.w3.org/2000/svg" width="23.135" height="19.894" viewBox="0 0 23.135 19.894">
  <g id="icon_tables" data-name="icon tables" transform="translate(0.567 0.505)">
    <g id="table">
      <path id="Path" d="M13.323,2.047V.946A.942.942,0,0,0,12.385,0H1.614A.942.942,0,0,0,.676.946v1.1L.6,2.841l-.6,6a.47.47,0,0,0,.381.506c.769.152.909.7,1.92.7,1.174,0,1.174-.74,2.348-.74s1.174.74,2.348.74,1.174-.74,2.348-.74,1.174.74,2.348.74c1.011,0,1.151-.549,1.921-.7A.47.47,0,0,0,14,8.84l-.6-6Z" transform="translate(4 6.43)" fill="none" stroke="#3d5a80" stroke-linecap="round" stroke-miterlimit="10" stroke-width="1"/>
      <path id="Path-2" data-name="Path" d="M.055,0V1.608" transform="translate(5.98 17.281)" fill="none" stroke="#3d5a80" stroke-linecap="round" stroke-miterlimit="10" stroke-width="1"/>
      <path id="Path-3" data-name="Path" d="M.055,0V1.608" transform="translate(7.58 17.281)" fill="none" stroke="#3d5a80" stroke-linecap="round" stroke-miterlimit="10" stroke-width="1"/>
      <path id="Path-4" data-name="Path" d="M.055,0V1.608" transform="translate(14.38 17.281)" fill="none" stroke="#3d5a80" stroke-linecap="round" stroke-miterlimit="10" stroke-width="1"/>
      <path id="Path-5" data-name="Path" d="M.055,0V1.608" transform="translate(15.98 17.281)" fill="none" stroke="#3d5a80" stroke-linecap="round" stroke-miterlimit="10" stroke-width="1"/>
      <path id="Path-6" data-name="Path" d="M0,.055H7.6" transform="translate(4.4 8.42)" fill="none" stroke="#3d5a80" stroke-linecap="round" stroke-miterlimit="10" stroke-width="1"/>
      <path id="Path-7" data-name="Path" d="M1.2,0,0,8.175v7.9" transform="translate(20.8 2.813)" fill="none" stroke="#3d5a80" stroke-linecap="round" stroke-miterlimit="10" stroke-width="1"/>
      <path id="Path-8" data-name="Path" d="M0,.055H2" transform="translate(18.8 11.233)" fill="none" stroke="#3d5a80" stroke-linecap="round" stroke-miterlimit="10" stroke-width="1"/>
      <path id="Path-9" data-name="Path" d="M0,.055H2" transform="translate(18.8 12.84)" fill="none" stroke="#3d5a80" stroke-linecap="round" stroke-miterlimit="10" stroke-width="1"/>
      <path id="Path-10" data-name="Path" d="M0,0,1.2,8.175v7.9" transform="translate(0 2.813)" fill="none" stroke="#3d5a80" stroke-linecap="round" stroke-miterlimit="10" stroke-width="1"/>
      <path id="Path-11" data-name="Path" d="M2,.055H0" transform="translate(0.8 11.233)" fill="none" stroke="#3d5a80" stroke-linecap="round" stroke-miterlimit="10" stroke-width="1"/>
      <path id="Path-12" data-name="Path" d="M2,.055H0" transform="translate(0.8 12.84)" fill="none" stroke="#3d5a80" stroke-linecap="round" stroke-miterlimit="10" stroke-width="1"/>
      <path id="Path-13" data-name="Path" d="M.8,2.009h0A.839.839,0,0,1,0,1.136V.006A.006.006,0,0,1,.008,0L.8.485,1.592,0A.006.006,0,0,1,1.6.006v1.13A.84.84,0,0,1,.8,2.009Z" transform="translate(10 0)" fill="none" stroke="#3d5a80" stroke-linecap="round" stroke-miterlimit="10" stroke-width="1"/>
      <path id="Path-14" data-name="Path" d="M.058,0,.052,1.608" transform="translate(10.78 2.009)" fill="none" stroke="#3d5a80" stroke-linecap="round" stroke-miterlimit="10" stroke-width="1"/>
      <path id="Path-15" data-name="Path" d="M0,2.813.271,1.407.062.323A.269.269,0,0,1,.322,0h.956a.269.269,0,0,1,.26.323L1.329,1.407,1.6,2.813" transform="translate(10 3.617)" fill="none" stroke="#3d5a80" stroke-linecap="round" stroke-miterlimit="10" stroke-width="1"/>
    </g>
  </g>
</svg>
